<?xml version="1.0" encoding="utf-8"?>
<!-- Generator: Adobe Illustrator 24.1.0, SVG Export Plug-In . SVG Version: 6.00 Build 0)  -->
<svg version="1.1" id="Layer_1" xmlns="http://www.w3.org/2000/svg" xmlns:xlink="http://www.w3.org/1999/xlink" x="0px" y="0px"
	 width="978.2px" height="194.5px" viewBox="0 0 978.2 194.5" style="enable-background:new 0 0 978.2 194.5;" xml:space="preserve"
	>
<style type="text/css">
	.st0{fill-rule:evenodd;clip-rule:evenodd;fill:#E60042;}
	.st1{filter:url(#Adobe_OpacityMaskFilter);}
	.st2{fill-rule:evenodd;clip-rule:evenodd;fill:#FFFFFF;}
	.st3{mask:url(#mask-2_1_);fill-rule:evenodd;clip-rule:evenodd;fill:#E60042;}
</style>
<desc>Created with Sketch.</desc>
<g id="Page-1_2_">
	<g id="Artboard" transform="translate(-384.000000, -420.000000)">
		<g id="Group" transform="translate(384.000000, 420.000000)">
			<g id="Snapdeal-Logo" transform="translate(1.000000, 1.000000)">
				<g id="Page-1_1_">
					<g>
						<g id="PDP-m_x26_t-changes">
							<g id="Group-41">
								<g id="Page-1">
									<path id="Fill-1" class="st0" d="M286.6,50.7c-21.1,0-33.7,10.3-33.7,27.2c0,13.1,7.2,22.2,30.3,30.3l7.6,2.6
										c14.3,5,18.6,9.3,18.6,16.3c0,8.9-7.8,14.3-20.9,14.3c-10.6,0-19-3.2-27-10.7c-3.3-3.2-7.6-3.2-10.8,0l-0.2,0.2
										c-2.7,2.6-2.7,7.9,0,10.5c10.8,10.3,22.7,14.5,38,14.5c23.1,0,37.2-10.7,37.2-29.1c0-14.3-7.2-22.4-29.4-30.3l-7.4-2.6
										c-15.1-5.4-19.6-9.7-19.6-16.7c0-7.3,6.7-12.1,17.4-12.1c8.8,0,15.7,3,23.1,9.5c3.3,3,7.8,2.8,11-0.4l0.2-0.2
										c2.7-2.6,2.7-7.9-0.2-10.3C310.8,54.7,300.5,50.7,286.6,50.7"/>
									<path id="Fill-3" class="st0" d="M506.9,112.4v0.4v2c0,15.3-11,26.6-28.8,26.6c-13.9,0-22.3-6.3-22.3-17.8
										c0-11.1,9-17.6,24.5-17.6h26.6V112.4L506.9,112.4z M482.9,50.7c-12.7,0-24.5,3.4-36,14.9c-2.7,2.8-2.7,8.3,0,10.9l0.4,0.4
										c3.1,3,7.6,3,10.6-0.2c8.4-8.9,16.6-11.5,24.9-11.5c14.9,0,23.9,8.3,23.9,22v5h-26.6c-25.8,0-40.9,11.5-40.9,31.5
										c0,18.8,14.5,32.3,35,32.3c14.5,0,25.8-5.7,32.7-14.7v4.4c0,4,3.5,7.5,7.8,7.5h0.4c4.1,0,7.6-3.4,7.6-7.7V87.2
										C522.8,64.4,507.9,50.7,482.9,50.7L482.9,50.7L482.9,50.7z"/>
									<path id="Fill-5" class="st0" d="M918.5,112.4v0.4v2c0,15.3-11,26.6-28.8,26.6c-13.9,0-22.3-6.3-22.3-17.8
										c0-11.1,9-17.6,24.5-17.6h26.6V112.4L918.5,112.4z M894.6,50.7c-21.5,0-38.2,12.5-38.2,20.8c0,2,0.6,4,2,5.4l0.4,0.4
										c1.4,1.4,3.1,2,5.1,2c3.5,0,5.9-2.6,9.2-5.9c4.1-4,10.6-8.3,21.5-8.3c14.9,0,23.9,8.3,23.9,22v5h-26.6
										c-25.8,0-40.9,11.5-40.9,31.5c0,18.8,14.5,32.3,35,32.3c14.5,0,25.8-5.7,32.7-14.7v4.4c0,4,3.5,7.5,7.8,7.5h0.4
										c4.1,0,7.6-3.4,7.6-7.7V87.2C934.4,64.4,919.5,50.7,894.6,50.7L894.6,50.7L894.6,50.7z"/>
									<path id="Fill-7" class="st0" d="M716.9,112c-2,18.6-11.5,29.5-28.6,29.5c-19.4,0-29-14.1-29-38.1c0-24,9.6-38.1,29-38.1
										c17.4,0,26.8,11.3,28.6,30.3V112L716.9,112z M732.8,126.7V7.1c0-4.2-3.5-7.7-7.8-7.7h-0.4c-4.3,0-7.8,3.4-7.8,7.7V65
										c-7.2-9.3-17.8-14.3-31.9-14.3c-27.2,0-42.1,19.4-42.1,52.7S657.8,156,685,156c15.1,0,26.4-5.9,33.3-16.5
										c2.9,8.5,9.6,15.1,16.2,15.1c4.3,0,8-3,8-7.5C742.4,139,732.8,140.2,732.8,126.7L732.8,126.7L732.8,126.7z"/>
									<path id="Fill-9" class="st0" d="M584.6,141.4c-19.4,0-29-14.1-29-37.3v-1.6c0-23.2,9.6-37.3,29-37.3c19,0,29,14.1,29,38.1
										C613.6,127.3,603.6,141.4,584.6,141.4 M587.8,50.7c-14.1,0-24.9,5.2-32.1,14.7v-4.4c0-4-3.5-7.5-7.6-7.5h-0.4
										c-4.3,0-7.8,3.4-7.8,7.5v124.7c0,4.2,3.5,7.7,7.8,7.7h0.4c4.3,0,7.8-3.4,7.8-7.7v-44.2c7.2,9.5,17.8,14.5,31.9,14.5
										c27.2,0,42.1-19.4,42.1-52.7C630,70,615,50.7,587.8,50.7"/>
									<path id="Fill-11" class="st0" d="M795,65.2c18.2,0,27.4,10.7,28.4,29.5H767C769,76.1,778.2,65.2,795,65.2L795,65.2
										L795,65.2z M835.1,133.4c-3.3-3-7.8-3.4-11.5-0.6c-8,6.1-15.1,8.7-25.4,8.7c-19.6,0-30.3-12.3-31.5-32.9h62.8
										c5.9,0,10.2-4.2,10.2-10.1c0-29.9-14.5-47.8-44.8-47.8c-29.4,0-44.8,19.6-44.8,52.7c0,33.1,16.6,52.7,48.1,52.7
										c14.9,0,25.4-3.6,36.4-12.5c3.1-2.4,3.3-7.3,0.6-9.9L835.1,133.4L835.1,133.4z"/>
									<path id="Fill-13" class="st0" d="M356.4,145.5V95.6c0-19,9.6-30.5,27.6-30.5c17.4,0,24.9,9.7,24.9,29.1v51.2
										c0,4.2,3.5,7.7,7.8,7.7h0.4c4.3,0,7.8-3.4,7.8-7.7V93.8c0-29.3-11.5-43.2-37.2-43.2c-14.1,0-24.7,5.2-31.5,14.7v-4.4
										c0-4-3.5-7.5-7.6-7.5h-0.4c-4.3,0-7.8,3.4-7.8,7.5v84.5c0,4.2,3.5,7.7,7.8,7.7h0.4C352.9,153.1,356.4,149.7,356.4,145.5"/>
									<path id="Fill-15" class="st0" d="M969.2,154.6c4.3,0,8-3,8-7.5c0-8.1-9.6-6.9-9.6-20.4V7.1c0-4.2-3.5-7.7-7.8-7.7h-0.4
										c-4.3,0-7.8,3.4-7.8,7.7V131C951.6,142.9,960.4,154.6,969.2,154.6"/>
									<g id="Group-19" transform="translate(0.000000, 1.395172)">
										<g id="Fill-17-Clipped">
											<g id="path-1_1_">
											</g>
											<defs>
												<filter id="Adobe_OpacityMaskFilter" filterUnits="userSpaceOnUse" x="-1" y="8" width="210.9" height="184.1">
													<feColorMatrix  type="matrix" values="1 0 0 0 0  0 1 0 0 0  0 0 1 0 0  0 0 0 1 0"/>
												</filter>
											</defs>
											<mask maskUnits="userSpaceOnUse" x="-1" y="8" width="210.9" height="184.1" id="mask-2_1_">
												<g class="st1">
													<polygon id="path-1_2_" class="st2" points="-1,192.1 209.9,192.1 209.9,8 -1,8 													"/>
												</g>
											</mask>
											<path id="Fill-17" class="st3" d="M43.1,186.9c2.2,3.8,4.7,5.2,9.2,5.2h83.8c4.5,0,7-1.2,9.8-4.8l63.4-80.7
												c1.4-1.8-0.2-4.8-2.5-4.8H105.3c-4.5,0-7-1.4-9.2-5.2L44.9,9.3c-1.2-2-4.5-1.6-5.3,0.4L0.2,103.9
												c-1.8,4.2-1.4,7.1,0.8,10.9L43.1,186.9L43.1,186.9z"/>
										</g>
									</g>
									<path id="Fill-20" class="st0" d="M148.6,84.1c2.2,3.8,4.7,5.2,9.2,5.2h49.1c2.5,0,4.3-3,3.1-5.2L163.1,4.2
										c-2.2-3.8-4.7-5.2-9.2-5.2H60.3c-2.5,0-4.3,3-3.1,5.2l24.3,41.6c2.2,3.8,4.7,5.2,9.2,5.2h38.6L148.6,84.1L148.6,84.1z"/>
								</g>
							</g>
						</g>
					</g>
				</g>
			</g>
		</g>
	</g>
</g>
</svg>
